<?xml version="1.0" encoding="utf-8"?>
<!-- Generator: Adobe Illustrator 25.0.0, SVG Export Plug-In . SVG Version: 6.00 Build 0)  -->
<svg version="1.1" id="Layer_1" xmlns="http://www.w3.org/2000/svg" xmlns:xlink="http://www.w3.org/1999/xlink" x="0px" y="0px"
	 viewBox="0 0 320 132" style="enable-background:new 0 0 320 132;" xml:space="preserve">
<g>
	<g>
		<path style="fill:#2F71FF;" d="M58.12,20.92c-0.42-0.01-0.81,0.11-1.14,0.33c0,0-0.01,0-0.01,0.01c-0.03,0.02-0.07,0.05-0.1,0.07
			c0,0-0.01,0-0.01,0.01l-0.87,0.64l-32.01,23.4l-9.22,6.74l-2.39,1.74c-3.02,2.21-5.4,5.24-6.75,8.78
			c-0.55,1.43-0.97,3.03-1.12,4.76c-0.04,0.46-0.06,0.92-0.06,1.4l-0.03,6.45v10.79c0,1.13,0.86,2.1,1.97,2.13
			c0.42,0.01,0.81-0.11,1.14-0.33c0,0,0.01,0,0.01-0.01c0.03-0.02,0.07-0.05,0.1-0.07c0,0,0.01-0.01,0.01-0.01l0.87-0.64l6.68-4.88
			l20.38-14.9l9.37-6.85l7.2-5.26c3.02-2.21,5.4-5.24,6.75-8.78c0.69-1.81,1.18-3.89,1.18-6.15v-6.43l0.03-0.02V23.05
			C60.09,21.92,59.23,20.95,58.12,20.92z"/>
		<path style="fill:#2F43FF;" d="M57.89,98.64v10.39c0,1.09-0.83,2.03-1.89,2.05c-0.41,0.01-0.78-0.11-1.1-0.32
			c0,0-0.01,0-0.01-0.01c-0.03-0.02-0.07-0.05-0.1-0.07c0,0-0.01-0.01-0.01-0.01l-0.84-0.61L22.99,87.94l-2.84-2.08l20.38-14.9
			l9.7,7.09c2.91,2.12,5.2,5.04,6.5,8.45c0.66,1.74,1.14,3.74,1.14,5.92v6.19L57.89,98.64z"/>
	</g>
	<g>
		<g>
			<path style="fill:#000027;" d="M94.42,58.17l-4.32,4.88v0.53c0,4.56-3.7,8.26-8.26,8.26h0V37.02h0c4.56,0,8.26,3.7,8.26,8.26
				v6.87l5.94-7.11c4.24-5.08,10.52-8.02,17.13-8.02h0L99.84,52.05l14.33,19.79h0c-6.28,0-12.17-3.04-15.81-8.15L94.42,58.17z"/>
			<path style="fill:#000027;" d="M126.84,49.87c0.75-1.38,1.82-2.43,3.18-3.11c1.36-0.68,2.94-0.9,4.76-0.68v7.46
				c-2.72-0.46-4.71-0.07-6,1.17c-1.29,1.24-1.92,3.42-1.92,6.56v10.59h-7.97V54.46c0-4.4,3.57-7.97,7.97-7.97h0v3.42L126.84,49.87z
				"/>
			<path style="fill:#000027;" d="M144.64,43.53c-1.26,0-2.33-0.44-3.23-1.31c-0.9-0.87-1.34-1.94-1.34-3.2
				c0-1.16,0.47-2.26,1.3-3.07c0.91-0.89,2-1.35,3.29-1.35c1.26,0,2.33,0.44,3.23,1.31c0.9,0.87,1.36,1.92,1.36,3.13
				c0,1.26-0.44,2.33-1.34,3.21c-0.9,0.87-1.97,1.31-3.23,1.31L144.64,43.53z M148.5,46.47L148.5,46.47l0,17.41
				c0,4.39-3.56,7.94-7.94,7.94h0V54.41C140.56,50.02,144.11,46.47,148.5,46.47z"/>
			<path style="fill:#000027;" d="M167.39,72.55c-3.45,0-6.36-1.29-8.74-3.84c-2.38-2.55-3.57-5.73-3.57-9.54s1.19-6.99,3.57-9.54
				c2.38-2.55,5.29-3.84,8.74-3.84c3.01,0,5.44,1.02,7.31,3.04v-2.33h7.97v21.4c0,2.18-1.77,3.95-3.95,3.95h-4.01v-2.33
				c-1.92,2.02-4.35,3.04-7.29,3.04H167.39z M168.82,65.5c1.77,0,3.23-0.58,4.37-1.77c1.14-1.19,1.72-2.72,1.72-4.59
				s-0.58-3.38-1.72-4.54c-1.14-1.17-2.6-1.75-4.35-1.75c-1.72,0-3.13,0.58-4.25,1.75c-1.12,1.17-1.68,2.67-1.68,4.54
				c0,1.89,0.56,3.42,1.68,4.59c1.12,1.17,2.53,1.75,4.25,1.75L168.82,65.5z"/>
			<path style="fill:#000027;" d="M202.7,72.64c-3.91,0-7.16-1.29-9.74-3.84c-2.57-2.55-3.86-5.73-3.86-9.54
				c0-3.81,1.29-6.99,3.84-9.54c2.55-2.55,5.76-3.84,9.62-3.84c3.38,0,6.22,0.87,8.5,2.62c2.28,1.75,3.69,3.74,4.23,5.95l-7.36,2.09
				c-0.22-1-0.83-1.85-1.8-2.57c-0.97-0.73-2.14-1.09-3.5-1.09c-1.72,0-3.11,0.61-4.18,1.82c-1.07,1.21-1.6,2.7-1.6,4.44
				c0,1.75,0.53,3.25,1.6,4.52c1.07,1.26,2.45,1.89,4.18,1.89c1.36,0,2.53-0.36,3.5-1.07c0.01-0.01,0.02-0.01,0.03-0.02
				c1.82-1.34,4.11-1.85,6.29-1.23l2.87,0.81c-0.53,2.21-1.92,4.18-4.18,5.9c-2.26,1.72-5.05,2.6-8.4,2.6L202.7,72.64z"/>
			<path style="fill:#000027;" d="M238.13,71.02c-2.09,0.83-4.15,1.24-6.22,1.24c-2.99,0-5.22-0.85-6.73-2.55
				c-1.51-1.7-2.26-4.03-2.26-7.02v-9.25h-3.93v-6.95h3.93v0c0-4.4,3.57-7.97,7.97-7.97h0v7.97h6.82v6.95h-6.82v9.25
				c0,1.77,0.87,2.65,2.62,2.65c0.97,0,1.87-0.22,2.7-0.66L238.13,71.02z"/>
			<path style="fill:#000027;" d="M247.91,43.53c-1.26,0-2.33-0.44-3.23-1.31c-0.9-0.87-1.34-1.94-1.34-3.2
				c0-1.16,0.47-2.26,1.3-3.07c0.91-0.89,2-1.35,3.29-1.35c1.26,0,2.33,0.44,3.23,1.31c0.9,0.87,1.36,1.92,1.36,3.13
				c0,1.26-0.44,2.33-1.34,3.21c-0.9,0.87-1.97,1.31-3.23,1.31L247.91,43.53z M251.77,46.47L251.77,46.47l0,17.41
				c0,4.39-3.56,7.94-7.94,7.94h0V54.41C243.83,50.02,247.39,46.47,251.77,46.47z"/>
			<path style="fill:#000027;" d="M286.3,46.49l-10.22,25.35h-8.96l-10.25-25.35h0c5.25,0,9.94,3.28,11.75,8.21l2.96,8.09l3.01-8.14
				C276.41,49.74,281.08,46.49,286.3,46.49L286.3,46.49z"/>
			<path style="fill:#000027;" d="M302.84,72.57c-4.15,0-7.5-1.24-10.08-3.72c-2.57-2.48-3.86-5.68-3.86-9.64
				c0-3.89,1.24-7.09,3.72-9.62c2.48-2.53,5.71-3.79,9.71-3.79c4.08,0,7.31,1.24,9.69,3.72c2.38,2.48,3.57,5.61,3.57,9.4
				c0,1-0.07,1.87-0.19,2.62h-18.75c0.61,2.91,2.72,4.37,6.34,4.37c2.43,0,4.13-0.85,5.08-2.57l7.16,2.09
				c-0.8,1.82-2.28,3.47-4.47,4.93c-2.19,1.46-4.81,2.19-7.89,2.19L302.84,72.57z M307.84,56.79c-0.12-1.19-0.68-2.21-1.7-3.06
				c-1.02-0.85-2.31-1.26-3.86-1.26c-1.55,0-2.84,0.44-3.84,1.29c-1,0.85-1.58,1.87-1.77,3.04H307.84z"/>
		</g>
		<g>
			<path style="fill:#2F71FF;" d="M86.53,94.94c-1.25,0-2.28-0.29-3.09-0.87c-0.81-0.58-1.34-1.39-1.6-2.43l1.18-0.62
				c0.15,0.81,0.53,1.45,1.13,1.91c0.6,0.46,1.4,0.69,2.42,0.69c0.95,0,1.75-0.2,2.39-0.6c0.64-0.4,1.04-0.94,1.2-1.64
				c0.09-0.41,0.08-0.78-0.04-1.1c-0.12-0.32-0.36-0.6-0.72-0.83c-0.37-0.23-0.69-0.41-0.97-0.52c-0.28-0.12-0.7-0.27-1.25-0.46
				c-0.55-0.19-1.02-0.38-1.4-0.57c-0.38-0.19-0.78-0.44-1.2-0.77c-0.42-0.33-0.71-0.73-0.87-1.21c-0.16-0.48-0.18-1.02-0.05-1.64
				c0.22-1.08,0.77-1.9,1.65-2.47c0.88-0.57,1.85-0.85,2.92-0.85c1.12,0,2.02,0.27,2.71,0.81c0.69,0.54,1.18,1.23,1.48,2.06
				l-1.2,0.62c-0.48-1.45-1.5-2.18-3.07-2.18c-0.75,0-1.42,0.19-2.02,0.56c-0.6,0.37-0.98,0.9-1.12,1.58
				c-0.09,0.41-0.08,0.77,0.04,1.09c0.12,0.32,0.35,0.59,0.69,0.82c0.35,0.23,0.67,0.41,0.96,0.55c0.3,0.14,0.71,0.29,1.23,0.47
				c0.57,0.21,1.01,0.38,1.34,0.53c0.33,0.15,0.73,0.39,1.2,0.71c0.47,0.33,0.79,0.74,0.95,1.23c0.17,0.5,0.19,1.06,0.06,1.71
				c-0.22,1.11-0.78,1.95-1.7,2.53C88.87,94.65,87.79,94.94,86.53,94.94z"/>
			<path style="fill:#2F71FF;" d="M97.71,94.94c-1.36,0-2.48-0.47-3.37-1.41c-0.88-0.94-1.19-2.19-0.92-3.74
				c0.27-1.56,0.99-2.77,2.17-3.64c1.18-0.87,2.45-1.31,3.81-1.31c1.32,0,2.41,0.47,3.27,1.42c0.85,0.94,1.15,2.18,0.88,3.71
				c-0.18,1.08-0.59,2.01-1.21,2.78c-0.63,0.77-1.34,1.33-2.13,1.68C99.42,94.77,98.59,94.94,97.71,94.94z M97.83,93.71
				c1.03,0,1.98-0.34,2.85-1.02c0.87-0.68,1.41-1.63,1.62-2.85c0.21-1.17-0.01-2.09-0.65-2.76c-0.64-0.67-1.46-1-2.48-1
				c-1.03,0.01-1.98,0.35-2.84,1.02c-0.87,0.67-1.41,1.6-1.63,2.8c-0.21,1.21,0.01,2.15,0.65,2.83
				C95.99,93.39,96.81,93.72,97.83,93.71z"/>
			<path style="fill:#2F71FF;" d="M107.01,84.68c0.23-1.3,0.75-2.27,1.55-2.9c0.8-0.64,1.85-0.9,3.15-0.8l-0.23,1.23
				c-1.81-0.17-2.88,0.66-3.2,2.47l-0.08,0.39h2.78l-0.21,1.23h-2.78l-1.48,8.41h-1.27l1.48-8.41h-1.64l0.21-1.23h1.64L107.01,84.68
				z"/>
			<path style="fill:#2F71FF;" d="M114.86,86.3l-1.02,5.84c-0.09,0.53-0.05,0.91,0.13,1.14c0.17,0.23,0.47,0.35,0.88,0.35
				c0.41,0,0.92-0.01,1.52-0.04l-0.19,1.12c-2.78,0.42-3.98-0.43-3.61-2.56l1.04-5.84h-2.04l0.23-1.23h2.02l0.4-2.31l1.33-0.39
				l-0.48,2.7h2.8l-0.23,1.23H114.86z"/>
			<path style="fill:#2F71FF;" d="M131.54,85.07h1.37l-4.67,9.64h-1.39l-1.12-7.77l-3.86,7.77h-1.39l-1.27-9.64h1.25l0.96,8l3.93-8
				h1.29l-0.02,0.04l1.12,7.96L131.54,85.07z"/>
			<path style="fill:#2F71FF;" d="M142.78,85.07h1.27l-1.7,9.64h-1.27l0.29-1.64c-1.04,1.25-2.44,1.87-4.18,1.87
				c-1.35,0-2.44-0.52-3.26-1.56c-0.82-1.04-1.11-2.27-0.87-3.68c0.27-1.54,0.94-2.74,2-3.59c1.06-0.85,2.23-1.27,3.52-1.27
				c0.84,0,1.6,0.2,2.29,0.59c0.69,0.39,1.21,0.95,1.54,1.69L142.78,85.07z M137.5,93.71c1.05,0,2-0.34,2.83-1.01
				c0.84-0.68,1.36-1.53,1.56-2.57l0.04-0.23c0.18-1.18-0.06-2.11-0.72-2.8c-0.66-0.68-1.51-1.02-2.54-1.02
				c-1,0-1.93,0.33-2.77,0.98c-0.84,0.66-1.37,1.57-1.57,2.74c-0.18,1.08,0.03,2,0.64,2.77C135.57,93.32,136.42,93.71,137.5,93.71z"
				/>
			<path style="fill:#2F71FF;" d="M147.79,86.42c0.86-1.09,1.97-1.59,3.32-1.5l-0.23,1.23c-0.87,0-1.65,0.26-2.31,0.77
				c-0.67,0.51-1.1,1.32-1.29,2.43l-0.94,5.36h-1.27l1.7-9.64h1.27L147.79,86.42z"/>
			<path style="fill:#2F71FF;" d="M156.78,84.84c1.45,0,2.56,0.5,3.33,1.5c0.76,1,1.01,2.2,0.72,3.59c-0.04,0.23-0.09,0.43-0.15,0.6
				h-8.43c-0.04,0.98,0.23,1.75,0.82,2.32c0.58,0.57,1.39,0.86,2.4,0.86c1.48,0,2.62-0.55,3.41-1.66l1,0.66
				c-0.46,0.71-1.12,1.26-1.96,1.65c-0.84,0.39-1.72,0.59-2.63,0.59c-1.49,0-2.64-0.5-3.43-1.5c-0.8-1-1.07-2.25-0.81-3.74
				c0.24-1.41,0.91-2.58,2-3.49C154.14,85.29,155.38,84.84,156.78,84.84z M152.44,89.29h7.17c0.08-1.05-0.15-1.85-0.69-2.4
				c-0.54-0.55-1.28-0.82-2.22-0.82c-1.02,0-1.91,0.29-2.67,0.88C153.27,87.53,152.74,88.31,152.44,89.29z"/>
			<path style="fill:#2F71FF;" d="M163.65,93.07l-1.93,4.34h-1.16l1.54-4.34H163.65z"/>
			<path style="fill:#2F71FF;" d="M172.46,93.44h6.17l-0.23,1.27h-7.52l2.37-13.5h1.35L172.46,93.44z"/>
			<path style="fill:#2F71FF;" d="M189.97,81.21h1.27l-2.37,13.5h-1.27l0.29-1.64c-1.04,1.25-2.44,1.87-4.18,1.87
				c-1.35,0-2.44-0.52-3.26-1.56c-0.82-1.04-1.11-2.27-0.87-3.68c0.27-1.54,0.94-2.74,2-3.59c1.06-0.85,2.23-1.27,3.52-1.27
				c0.84,0,1.6,0.2,2.29,0.59c0.69,0.39,1.21,0.95,1.54,1.69L189.97,81.21z M184.01,93.71c1.05,0,2-0.34,2.83-1.01
				c0.83-0.68,1.35-1.53,1.57-2.56l0.04-0.31c0.17-1.17-0.08-2.09-0.73-2.76c-0.66-0.67-1.5-1-2.53-1c-1,0-1.93,0.33-2.77,0.98
				c-0.84,0.66-1.37,1.57-1.57,2.74c-0.18,1.08,0.03,2,0.64,2.77C182.09,93.32,182.93,93.71,184.01,93.71z"/>
			<path style="fill:#2F71FF;" d="M201.6,85.07h1.27l-1.7,9.64h-1.27l0.29-1.64c-1.04,1.25-2.44,1.87-4.18,1.87
				c-1.35,0-2.44-0.52-3.26-1.56c-0.82-1.04-1.11-2.27-0.87-3.68c0.27-1.54,0.94-2.74,2-3.59c1.06-0.85,2.23-1.27,3.52-1.27
				c0.84,0,1.6,0.2,2.29,0.59c0.69,0.39,1.21,0.95,1.54,1.69L201.6,85.07z M196.31,93.71c1.05,0,2-0.34,2.83-1.01
				c0.84-0.68,1.36-1.53,1.56-2.57l0.04-0.23c0.18-1.18-0.06-2.11-0.72-2.8c-0.66-0.68-1.51-1.02-2.54-1.02
				c-1,0-1.93,0.33-2.77,0.98c-0.84,0.66-1.37,1.57-1.57,2.74c-0.18,1.08,0.03,2,0.64,2.77C194.39,93.32,195.23,93.71,196.31,93.71z
				"/>
			<path style="fill:#2F71FF;" d="M204.7,94.9c-0.3,0-0.53-0.11-0.69-0.32c-0.17-0.21-0.23-0.47-0.17-0.76
				c0.05-0.3,0.19-0.54,0.41-0.74c0.22-0.2,0.5-0.3,0.82-0.3c0.3,0,0.53,0.11,0.7,0.32c0.17,0.21,0.23,0.47,0.18,0.76
				c-0.06,0.31-0.21,0.56-0.42,0.75C205.31,94.81,205.04,94.9,204.7,94.9z"/>
		</g>
	</g>
</g>
</svg>
