<?xml version="1.0" encoding="utf-8"?>
<!-- Generator: Adobe Illustrator 25.0.0, SVG Export Plug-In . SVG Version: 6.00 Build 0)  -->
<svg version="1.1" id="Layer_1" xmlns="http://www.w3.org/2000/svg" xmlns:xlink="http://www.w3.org/1999/xlink" x="0px" y="0px"
	 viewBox="0 0 150 150" style="enable-background:new 0 0 150 150;" xml:space="preserve">
<g>
	<g>
		<path style="fill:#2F71FF;" d="M101.04,9.44c-0.43-0.01-0.82,0.11-1.15,0.33c0,0-0.01,0-0.01,0.01c-0.03,0.02-0.07,0.05-0.1,0.07
			c0,0-0.01,0-0.01,0.01l-0.88,0.64L66.68,34.05l-9.28,6.79l-2.4,1.76c-3.04,2.22-5.43,5.27-6.79,8.83
			c-0.55,1.44-0.97,3.05-1.12,4.79c-0.04,0.46-0.06,0.93-0.06,1.4l-0.03,6.49v10.86c0,1.14,0.87,2.12,1.98,2.14
			c0.43,0.01,0.82-0.11,1.15-0.33c0,0,0.01,0,0.01-0.01c0.03-0.02,0.07-0.05,0.1-0.07c0,0,0.01-0.01,0.01-0.01l0.88-0.64l6.72-4.91
			l20.51-14.99l9.43-6.89l7.24-5.29c3.04-2.22,5.43-5.27,6.79-8.83c0.7-1.82,1.19-3.91,1.19-6.19v-6.47l0.03-0.02V11.58
			C103.02,10.45,102.15,9.47,101.04,9.44z"/>
		<path style="fill:#2F43FF;" d="M100.8,87.65v10.46c0,1.1-0.83,2.04-1.9,2.06c-0.41,0.01-0.79-0.11-1.11-0.32c0,0-0.01,0-0.01-0.01
			c-0.03-0.02-0.07-0.05-0.1-0.07c0,0-0.01-0.01-0.01-0.01l-0.85-0.62L65.68,76.88l-2.86-2.09L83.33,59.8l9.76,7.14
			c2.92,2.14,5.23,5.07,6.54,8.5c0.67,1.75,1.14,3.77,1.14,5.96v6.23L100.8,87.65z"/>
	</g>
	<g>
		<path style="fill:#000027;" d="M24.96,121.73l-2.07,2.34v0.26c0,2.19-1.77,3.96-3.96,3.96h0v-16.71h0c2.19,0,3.96,1.77,3.96,3.96
			v3.3l2.85-3.41c2.03-2.44,5.05-3.85,8.22-3.85h0l-6.4,7.21l6.88,9.5h0c-3.01,0-5.84-1.46-7.59-3.91L24.96,121.73z"/>
		<path style="fill:#000027;" d="M40.51,117.75c0.36-0.66,0.87-1.17,1.53-1.49c0.65-0.33,1.41-0.43,2.28-0.33v3.58
			c-1.31-0.22-2.26-0.03-2.88,0.56c-0.62,0.59-0.92,1.64-0.92,3.15v5.08H36.7v-8.34c0-2.11,1.71-3.82,3.82-3.82h0v1.64L40.51,117.75
			z"/>
		<path style="fill:#000027;" d="M49.05,114.71c-0.61,0-1.12-0.21-1.55-0.63c-0.43-0.42-0.64-0.93-0.64-1.54
			c0-0.56,0.22-1.09,0.62-1.47c0.44-0.43,0.96-0.65,1.58-0.65c0.61,0,1.12,0.21,1.55,0.63c0.43,0.42,0.65,0.92,0.65,1.5
			c0,0.61-0.21,1.12-0.64,1.54c-0.43,0.42-0.94,0.63-1.55,0.63L49.05,114.71z M50.9,116.12L50.9,116.12l0,8.36
			c0,2.1-1.71,3.81-3.81,3.81h0v-8.36C47.09,117.82,48.8,116.12,50.9,116.12z"/>
		<path style="fill:#000027;" d="M59.97,128.63c-1.65,0-3.05-0.62-4.2-1.84c-1.14-1.22-1.71-2.75-1.71-4.58s0.57-3.36,1.71-4.58
			c1.14-1.22,2.54-1.84,4.2-1.84c1.44,0,2.61,0.49,3.51,1.46v-1.12h3.82v10.27c0,1.05-0.85,1.9-1.9,1.9h-1.92v-1.12
			c-0.92,0.97-2.09,1.46-3.5,1.46H59.97z M60.66,125.25c0.85,0,1.55-0.28,2.1-0.85c0.55-0.57,0.83-1.31,0.83-2.2
			c0-0.9-0.28-1.62-0.83-2.18c-0.55-0.56-1.25-0.84-2.09-0.84c-0.83,0-1.5,0.28-2.04,0.84c-0.54,0.56-0.8,1.28-0.8,2.18
			c0,0.91,0.27,1.64,0.8,2.2c0.54,0.56,1.21,0.84,2.04,0.84L60.66,125.25z"/>
		<path style="fill:#000027;" d="M76.91,128.68c-1.88,0-3.44-0.62-4.67-1.84s-1.85-2.75-1.85-4.58c0-1.83,0.62-3.36,1.84-4.58
			c1.22-1.22,2.76-1.84,4.61-1.84c1.62,0,2.98,0.42,4.08,1.26c1.1,0.84,1.77,1.79,2.03,2.85l-3.53,1c-0.1-0.48-0.4-0.89-0.86-1.24
			c-0.47-0.35-1.03-0.52-1.68-0.52c-0.83,0-1.49,0.29-2,0.87c-0.51,0.58-0.77,1.29-0.77,2.13c0,0.84,0.26,1.56,0.77,2.17
			c0.51,0.61,1.18,0.91,2,0.91c0.65,0,1.21-0.17,1.68-0.51c0,0,0.01-0.01,0.01-0.01c0.87-0.64,1.97-0.89,3.02-0.59l1.37,0.39
			c-0.26,1.06-0.92,2-2,2.83c-1.08,0.83-2.42,1.25-4.03,1.25L76.91,128.68z"/>
		<path style="fill:#000027;" d="M93.91,127.9c-1,0.4-1.99,0.59-2.98,0.59c-1.43,0-2.51-0.41-3.23-1.22
			c-0.72-0.82-1.08-1.93-1.08-3.37v-4.44h-1.89v-3.33h1.89l0,0c0-2.11,1.71-3.82,3.82-3.82h0v3.82h3.27v3.33h-3.27v4.44
			c0,0.85,0.42,1.27,1.26,1.27c0.47,0,0.9-0.1,1.29-0.31L93.91,127.9z"/>
		<path style="fill:#000027;" d="M98.61,114.71c-0.61,0-1.12-0.21-1.55-0.63c-0.43-0.42-0.64-0.93-0.64-1.54
			c0-0.56,0.22-1.09,0.62-1.47c0.44-0.43,0.96-0.65,1.58-0.65c0.61,0,1.12,0.21,1.55,0.63c0.43,0.42,0.65,0.92,0.65,1.5
			c0,0.61-0.21,1.12-0.64,1.54c-0.43,0.42-0.94,0.63-1.55,0.63L98.61,114.71z M100.46,116.12L100.46,116.12l0,8.36
			c0,2.1-1.71,3.81-3.81,3.81h0v-8.36C96.65,117.82,98.35,116.12,100.46,116.12z"/>
		<path style="fill:#000027;" d="M117.03,116.13l-4.91,12.17h-4.3l-4.92-12.17h0c2.52,0,4.77,1.57,5.64,3.94l1.42,3.88l1.44-3.91
			C112.28,117.69,114.52,116.13,117.03,116.13L117.03,116.13z"/>
		<path style="fill:#000027;" d="M124.96,128.64c-1.99,0-3.6-0.59-4.84-1.78c-1.24-1.19-1.85-2.73-1.85-4.63
			c0-1.86,0.59-3.4,1.78-4.61c1.19-1.21,2.74-1.82,4.66-1.82c1.96,0,3.51,0.59,4.65,1.78c1.14,1.19,1.71,2.69,1.71,4.51
			c0,0.48-0.03,0.9-0.09,1.26h-9c0.29,1.4,1.31,2.1,3.04,2.1c1.17,0,1.98-0.41,2.44-1.24l3.44,1c-0.38,0.87-1.1,1.67-2.14,2.37
			c-1.05,0.7-2.31,1.05-3.79,1.05L124.96,128.64z M127.36,121.07c-0.06-0.57-0.33-1.06-0.82-1.47c-0.49-0.41-1.11-0.61-1.85-0.61
			s-1.36,0.21-1.84,0.62c-0.48,0.41-0.76,0.9-0.85,1.46H127.36z"/>
	</g>
	<g>
		<path style="fill:#2F71FF;" d="M47.47,139.38c-0.6,0-1.09-0.14-1.48-0.42c-0.39-0.28-0.64-0.67-0.77-1.17l0.56-0.3
			c0.07,0.39,0.25,0.69,0.54,0.92c0.29,0.22,0.67,0.33,1.16,0.33c0.46,0,0.84-0.1,1.15-0.29c0.31-0.19,0.5-0.45,0.57-0.79
			c0.04-0.2,0.04-0.37-0.02-0.53c-0.06-0.15-0.17-0.29-0.35-0.4c-0.18-0.11-0.33-0.19-0.47-0.25c-0.14-0.06-0.34-0.13-0.6-0.22
			c-0.27-0.09-0.49-0.18-0.67-0.27c-0.18-0.09-0.37-0.21-0.57-0.37c-0.2-0.16-0.34-0.35-0.42-0.58c-0.08-0.23-0.08-0.49-0.02-0.79
			c0.1-0.52,0.37-0.91,0.79-1.18c0.42-0.27,0.89-0.41,1.4-0.41c0.54,0,0.97,0.13,1.3,0.39c0.33,0.26,0.57,0.59,0.71,0.99l-0.57,0.3
			c-0.23-0.7-0.72-1.05-1.47-1.05c-0.36,0-0.68,0.09-0.97,0.27c-0.29,0.18-0.47,0.43-0.54,0.76c-0.04,0.2-0.04,0.37,0.02,0.52
			c0.06,0.15,0.17,0.28,0.33,0.39c0.17,0.11,0.32,0.2,0.46,0.26c0.14,0.06,0.34,0.14,0.59,0.23c0.27,0.1,0.49,0.18,0.64,0.25
			c0.16,0.07,0.35,0.19,0.57,0.34c0.23,0.16,0.38,0.35,0.46,0.59c0.08,0.24,0.09,0.51,0.03,0.82c-0.1,0.53-0.38,0.93-0.81,1.21
			C48.59,139.24,48.07,139.38,47.47,139.38z"/>
		<path style="fill:#2F71FF;" d="M52.83,139.38c-0.65,0-1.19-0.23-1.61-0.68c-0.42-0.45-0.57-1.05-0.44-1.8
			c0.13-0.75,0.48-1.33,1.04-1.75c0.56-0.42,1.17-0.63,1.83-0.63c0.64,0,1.16,0.23,1.57,0.68c0.41,0.45,0.55,1.05,0.42,1.78
			c-0.09,0.52-0.28,0.96-0.58,1.33c-0.3,0.37-0.64,0.64-1.02,0.81C53.65,139.29,53.25,139.38,52.83,139.38z M52.89,138.78
			c0.49,0,0.95-0.16,1.37-0.49c0.42-0.33,0.68-0.78,0.78-1.37c0.1-0.56,0-1-0.31-1.32c-0.31-0.32-0.7-0.48-1.19-0.48
			c-0.49,0.01-0.95,0.17-1.36,0.49c-0.42,0.32-0.68,0.77-0.78,1.34c-0.1,0.58,0,1.03,0.31,1.36
			C52.01,138.63,52.4,138.79,52.89,138.78z"/>
		<path style="fill:#2F71FF;" d="M57.29,134.45c0.11-0.62,0.36-1.09,0.74-1.39c0.39-0.31,0.89-0.43,1.51-0.38l-0.11,0.59
			c-0.87-0.08-1.38,0.31-1.54,1.18l-0.04,0.19h1.33l-0.1,0.59h-1.33l-0.71,4.03h-0.61l0.71-4.03h-0.79l0.1-0.59h0.79L57.29,134.45z"
			/>
		<path style="fill:#2F71FF;" d="M61.06,135.23l-0.49,2.8c-0.04,0.25-0.02,0.43,0.06,0.55c0.08,0.11,0.22,0.17,0.42,0.17
			c0.2,0,0.44-0.01,0.73-0.02l-0.09,0.54c-1.33,0.2-1.91-0.21-1.73-1.23l0.5-2.8h-0.98l0.11-0.59h0.97l0.19-1.11l0.64-0.19
			l-0.23,1.3h1.34l-0.11,0.59H61.06z"/>
		<path style="fill:#2F71FF;" d="M69.06,134.64h0.66l-2.24,4.63h-0.67l-0.54-3.73l-1.85,3.73h-0.67l-0.61-4.63h0.6l0.46,3.84
			l1.89-3.84h0.62l-0.01,0.02l0.54,3.82L69.06,134.64z"/>
		<path style="fill:#2F71FF;" d="M74.46,134.64h0.61l-0.81,4.63h-0.61l0.14-0.79c-0.5,0.6-1.17,0.9-2.01,0.9
			c-0.65,0-1.17-0.25-1.56-0.75c-0.39-0.5-0.53-1.09-0.42-1.77c0.13-0.74,0.45-1.31,0.96-1.72c0.51-0.41,1.07-0.61,1.69-0.61
			c0.4,0,0.77,0.09,1.1,0.28c0.33,0.19,0.58,0.46,0.74,0.81L74.46,134.64z M71.92,138.78c0.51,0,0.96-0.16,1.36-0.49
			c0.4-0.32,0.65-0.74,0.75-1.24l0.02-0.11c0.09-0.57-0.03-1.01-0.35-1.34c-0.32-0.33-0.72-0.49-1.22-0.49
			c-0.48,0-0.92,0.16-1.33,0.47c-0.4,0.31-0.66,0.75-0.75,1.31c-0.09,0.52,0.02,0.96,0.31,1.33C71,138.6,71.41,138.78,71.92,138.78z
			"/>
		<path style="fill:#2F71FF;" d="M76.87,135.29c0.41-0.52,0.94-0.76,1.59-0.72l-0.11,0.59c-0.42,0-0.79,0.12-1.11,0.37
			c-0.32,0.25-0.53,0.64-0.62,1.17l-0.45,2.57h-0.61l0.81-4.63h0.61L76.87,135.29z"/>
		<path style="fill:#2F71FF;" d="M81.18,134.53c0.7,0,1.23,0.24,1.6,0.72c0.37,0.48,0.48,1.05,0.35,1.72
			c-0.02,0.11-0.04,0.21-0.07,0.29H79c-0.02,0.47,0.11,0.84,0.39,1.12c0.28,0.27,0.66,0.41,1.15,0.41c0.71,0,1.26-0.27,1.64-0.8
			l0.48,0.31c-0.22,0.34-0.54,0.6-0.94,0.79c-0.4,0.19-0.83,0.28-1.26,0.28c-0.72,0-1.26-0.24-1.65-0.72
			c-0.38-0.48-0.51-1.08-0.39-1.8c0.12-0.68,0.44-1.24,0.96-1.67C79.91,134.75,80.5,134.53,81.18,134.53z M79.1,136.66h3.44
			c0.04-0.51-0.07-0.89-0.33-1.15c-0.26-0.26-0.61-0.39-1.06-0.39c-0.49,0-0.91,0.14-1.28,0.42
			C79.49,135.82,79.24,136.2,79.1,136.66z"/>
		<path style="fill:#2F71FF;" d="M84.47,138.48l-0.93,2.08h-0.56l0.74-2.08H84.47z"/>
		<path style="fill:#2F71FF;" d="M88.7,138.65h2.96l-0.11,0.61h-3.61l1.14-6.48h0.65L88.7,138.65z"/>
		<path style="fill:#2F71FF;" d="M97.1,132.79h0.61l-1.14,6.48h-0.61l0.14-0.79c-0.5,0.6-1.17,0.9-2.01,0.9
			c-0.65,0-1.17-0.25-1.56-0.75c-0.39-0.5-0.53-1.09-0.42-1.77c0.13-0.74,0.45-1.31,0.96-1.72s1.07-0.61,1.69-0.61
			c0.4,0,0.77,0.09,1.1,0.28c0.33,0.19,0.58,0.46,0.74,0.81L97.1,132.79z M94.24,138.78c0.51,0,0.96-0.16,1.36-0.49
			c0.4-0.32,0.65-0.73,0.75-1.23l0.02-0.15c0.08-0.56-0.04-1-0.35-1.32c-0.31-0.32-0.72-0.48-1.21-0.48c-0.48,0-0.92,0.16-1.33,0.47
			c-0.4,0.31-0.66,0.75-0.75,1.31c-0.09,0.52,0.02,0.96,0.31,1.33C93.32,138.6,93.72,138.78,94.24,138.78z"/>
		<path style="fill:#2F71FF;" d="M102.68,134.64h0.61l-0.81,4.63h-0.61l0.14-0.79c-0.5,0.6-1.17,0.9-2.01,0.9
			c-0.65,0-1.17-0.25-1.56-0.75c-0.39-0.5-0.53-1.09-0.42-1.77c0.13-0.74,0.45-1.31,0.96-1.72s1.07-0.61,1.69-0.61
			c0.4,0,0.77,0.09,1.1,0.28c0.33,0.19,0.58,0.46,0.74,0.81L102.68,134.64z M100.15,138.78c0.51,0,0.96-0.16,1.36-0.49
			c0.4-0.32,0.65-0.74,0.75-1.24l0.02-0.11c0.09-0.57-0.03-1.01-0.35-1.34c-0.32-0.33-0.72-0.49-1.22-0.49
			c-0.48,0-0.92,0.16-1.33,0.47c-0.4,0.31-0.66,0.75-0.75,1.31c-0.09,0.52,0.02,0.96,0.31,1.33
			C99.22,138.6,99.63,138.78,100.15,138.78z"/>
		<path style="fill:#2F71FF;" d="M104.17,139.36c-0.14,0-0.25-0.05-0.33-0.15c-0.08-0.1-0.11-0.22-0.08-0.37
			c0.02-0.14,0.09-0.26,0.2-0.36c0.11-0.1,0.24-0.14,0.39-0.14c0.14,0,0.25,0.05,0.34,0.15c0.08,0.1,0.11,0.22,0.09,0.37
			c-0.03,0.15-0.1,0.27-0.2,0.36C104.46,139.31,104.33,139.36,104.17,139.36z"/>
	</g>
</g>
</svg>
