<?xml version="1.0" encoding="utf-8"?>
<!-- Generator: Adobe Illustrator 25.0.0, SVG Export Plug-In . SVG Version: 6.00 Build 0)  -->
<svg version="1.1" id="Layer_1" xmlns="http://www.w3.org/2000/svg" xmlns:xlink="http://www.w3.org/1999/xlink" x="0px" y="0px"
	 viewBox="0 0 670.54 991.43" style="enable-background:new 0 0 670.54 991.43;" xml:space="preserve">
<g>
	<path style="fill:#2F71FF;" d="M611.25,14.9c-4.51-0.09-8.69,1.2-12.18,3.53c-0.03,0.02-0.09,0.03-0.12,0.07
		c-0.36,0.26-0.73,0.51-1.06,0.77c-0.05,0.02-0.09,0.05-0.1,0.07l-9.31,6.8L247.07,275.77l-98.39,71.92l-25.44,18.61
		c-32.21,23.55-57.58,55.86-72.01,93.61c-5.84,15.23-10.31,32.31-11.92,50.75c-0.44,4.87-0.67,9.84-0.67,14.89l-0.32,68.8v115.13
		c0,12.07,9.19,22.44,20.97,22.71c4.51,0.1,8.69-1.18,12.18-3.53c0.03-0.02,0.09-0.03,0.12-0.07c0.36-0.24,0.73-0.51,1.06-0.75
		c0.05-0.02,0.09-0.07,0.1-0.09l9.31-6.8l71.22-52.08l217.36-158.91l99.91-73.07l76.76-56.11c32.21-23.55,57.58-55.86,72.01-93.61
		c7.38-19.26,12.58-41.44,12.58-65.64v-68.54l0.32-0.26V37.63C632.22,25.55,623.03,15.19,611.25,14.9z"/>
	<path style="fill:#2F43FF;" d="M608.72,843.83v110.82c0,11.61-8.83,21.6-20.18,21.87c-4.34,0.09-8.37-1.16-11.73-3.42
		c-0.03-0.02-0.07-0.03-0.1-0.07c-0.36-0.24-0.72-0.5-1.02-0.72c-0.03-0.02-0.07-0.07-0.09-0.09l-8.96-6.54L236.5,729.73
		l-30.29-22.15l217.34-158.93l103.43,75.63c30.99,22.66,55.43,53.77,69.33,90.11c7.09,18.54,12.11,39.91,12.11,63.2v66
		L608.72,843.83z"/>
</g>
</svg>
